<svg id="Layer_1" enable-background="new 0 0 512 512" height="512" viewBox="0 0 512 512" width="512" xmlns="http://www.w3.org/2000/svg"><g><path d="m346.783 179.164c20.228 0 36.684-16.456 36.684-36.684v-16.377h-73.366v16.377c0 20.228 16.456 36.684 36.682 36.684z"/><path d="m243.417 179.164c20.228 0 36.684-16.456 36.684-36.684v-16.377h-73.367v16.377c-.001 20.228 16.455 36.684 36.683 36.684z"/><path d="m140.05 179.164c20.228 0 36.684-16.456 36.684-36.684v-16.377h-73.367v16.377c-.001 20.228 16.455 36.684 36.683 36.684z"/><path d="m36.684 179.164c20.227 0 36.683-16.456 36.683-36.684v-16.377h-73.367v16.377c0 20.228 16.456 36.684 36.684 36.684z"/><path d="m257.066 336.333c0-3.978 1.58-7.793 4.394-10.606l41.388-41.388h-58.526v195.527h63.97v-86.096l-46.832-46.83c-2.814-2.813-4.394-6.628-4.394-10.607z"/><path d="m73.366 32.133h-58.366c-8.284 0-15 6.716-15 15v48.97h73.366z"/><path d="m206.733 32.133h73.367v63.97h-73.367z"/><path d="m103.366 32.133h73.367v63.97h-73.367z"/><path d="m383.467 47.133c0-8.284-6.716-15-15-15h-58.366v63.97h73.366z"/><path d="m75.176 284.34h63.97v120.351h-63.97z"/><path d="m350.305 435.785-12.014-12.015v56.096h30.176c8.284 0 15-6.716 15-15v-18.912c-11.93 2.37-24.57-1.468-33.162-10.169z"/><path d="m512 239.933c0-63.432-41.365-117.378-98.533-136.3v116.283c12.269 26.383-2.903 58.758-30 66.941v-23.811c0-6.236-7.54-9.359-11.95-4.95l-78.238 78.237 78.238 78.237c4.41 4.41 11.95 1.287 11.95-4.95v-26.937c72.121-7.523 128.533-68.671 128.533-142.75z"/><path d="m330.812 256.375 19.492-19.493c8.592-8.701 21.234-12.54 33.163-10.17v-28.584c-27.573 19.05-68.132 12.402-88.366-13.569-25.829 32.616-77.55 32.602-103.367 0-25.829 32.616-77.55 32.603-103.367 0-20.239 25.977-60.801 32.615-88.367 13.569v266.738c0 8.284 6.716 15 15 15h199.321v-210.526c0-8.284 6.716-15 15-15h93.97c2.744 0 5.308.749 7.521 2.035zm-161.666 163.316c0 8.284-6.716 15-15 15h-93.97c-8.284 0-15-6.716-15-15v-150.351c0-8.284 6.716-15 15-15h93.97c8.284 0 15 6.716 15 15z"/></g></svg>