<svg id="Capa_1" enable-background="new 0 0 512 512" height="512" viewBox="0 0 512 512" width="512" xmlns="http://www.w3.org/2000/svg"><g><path d="m141.708 298.417 53.292-26.646 53.292 26.646c4.223 2.111 9.193 2.111 13.416 0l53.292-26.646 53.292 26.646c2.117 1.059 4.415 1.583 6.707 1.583 2.743 0 5.479-.752 7.887-2.24 4.423-2.733 7.114-7.561 7.114-12.76v-180c0-4.057-1.687-7.9-4.394-10.607l-89.999-89.999c-2.775-2.776-6.584-4.394-10.607-4.394h-270c-8.284 0-15 6.716-15 15v269.998c0 5.199 2.692 10.027 7.114 12.76 4.423 2.733 9.944 2.981 14.594.657l53.292-26.644 53.292 26.646c4.223 2.111 9.193 2.111 13.416 0zm158.292-247.204 38.787 38.787h-38.787zm-231.708 190.37-38.292 19.146v-230.729h240v75c0 8.284 6.716 15 15 15h75v140.729l-38.292-19.146c-4.223-2.111-9.193-2.111-13.416 0l-53.292 26.646-53.292-26.646c-2.111-1.056-4.41-1.583-6.708-1.583s-4.597.528-6.708 1.583l-53.292 26.646-53.292-26.646c-4.222-2.111-9.193-2.111-13.416 0z"/><path d="m503.708 333.583-60-30c-4.223-2.111-9.193-2.111-13.416 0l-53.292 26.646-53.292-26.646c-4.223-2.111-9.193-2.111-13.416 0l-53.292 26.646-53.292-26.646c-4.223-2.111-9.193-2.111-13.416 0l-60 30c-5.082 2.542-8.292 7.735-8.292 13.417v150c0 8.284 6.716 15 15 15h360c8.284 0 15-6.716 15-15v-150c0-5.682-3.21-10.875-8.292-13.417zm-21.708 148.417h-330v-125.729l45-22.5 53.292 26.646c4.223 2.111 9.193 2.111 13.416 0l53.292-26.646 53.292 26.646c4.223 2.111 9.193 2.111 13.416 0l53.292-26.646 45 22.5z"/><path d="m154.394 205.607c5.857 5.857 15.355 5.858 21.213 0l19.393-19.394 19.394 19.394c5.857 5.857 15.355 5.858 21.213 0s5.858-15.355 0-21.213l-19.394-19.394 19.393-19.393c5.858-5.858 5.858-15.355 0-21.213-5.857-5.858-15.355-5.858-21.213 0l-19.393 19.393-19.394-19.394c-5.857-5.858-15.355-5.858-21.213 0s-5.858 15.355 0 21.213l19.394 19.394-19.393 19.393c-5.858 5.858-5.858 15.356 0 21.214z"/></g></svg>