<?xml version="1.0" standalone="no"?>
<!DOCTYPE svg PUBLIC "-//W3C//DTD SVG 1.1//EN" "http://www.w3.org/Graphics/SVG/1.1/DTD/svg11.dtd" >
<!--
2019-1-15: Created with FontForge (http://fontforge.org)
-->
<svg xmlns="http://www.w3.org/2000/svg" xmlns:xlink="http://www.w3.org/1999/xlink" version="1.1">
<metadata>
Created by FontForge 20160405 at Tue Jan 15 10:31:52 2019
 By Apache
Copyright (c) 2019, Apache
</metadata>
<defs>
<font id="Reports" horiz-adv-x="512" >
  <font-face 
    font-family="Reports"
    font-weight="400"
    font-stretch="normal"
    units-per-em="512"
    panose-1="2 0 5 3 0 0 0 0 0 0"
    ascent="448"
    descent="-64"
    bbox="0 -64 392.533 448"
    underline-thickness="25.6"
    underline-position="-51.2"
    unicode-range="U+0020-F118"
  />
    <missing-glyph />
    <glyph glyph-name="space" unicode=" " horiz-adv-x="200" 
 />
    <glyph glyph-name="uniF118" unicode="&#xf118;" 
d="M238.934 238.754c30.5498 -25.2041 41.9951 -66.8701 28.6035 -104.142c-13.3867 -37.2744 -48.7334 -62.1328 -88.3369 -62.1328c-39.6045 0 -74.9502 24.8584 -88.3379 62.1328c-13.3916 37.2715 -1.94531 78.9375 28.6045 104.142v47.1123
c0 32.9922 26.7412 59.7334 59.7334 59.7334c32.9912 0 59.7334 -26.7412 59.7334 -59.7334v-47.1123zM136.533 285.866v-35.958c26.7666 13.8164 58.5664 13.8164 85.333 0v35.958c0 23.5625 -19.1035 42.667 -42.666 42.667s-42.667 -19.1045 -42.667 -42.667z
M179.2 89.5996c42.3955 0.0507812 76.75 34.4043 76.7998 76.8008c0 42.416 -34.3838 76.7998 -76.7998 76.7998c-42.417 0 -76.7998 -34.3838 -76.7998 -76.7998c0 -42.417 34.3828 -76.8008 76.7998 -76.8008zM179.2 89.5996zM179.2 235.271
c38.0205 -0.0371094 68.833 -30.8496 68.8711 -68.8701c0 -38.0381 -30.834 -68.8711 -68.8711 -68.8711c-38.0381 0 -68.8711 30.833 -68.8711 68.8711c0 38.0371 30.833 68.8701 68.8711 68.8701zM179.2 114.596c28.5996 0.0253906 51.7793 23.2041 51.8037 51.8047
c0 28.6123 -23.1914 51.8037 -51.8037 51.8037s-51.8047 -23.1914 -51.8047 -51.8037c0 -28.6133 23.1924 -51.8047 51.8047 -51.8047zM179.2 114.596zM179.2 204.066c9.69141 0.0214844 18.083 -6.72852 20.1377 -16.2002
c2.05762 -9.47461 -2.77539 -19.0957 -11.6045 -23.0957v-32.5039h-17.0664v32.5039c-8.8291 4 -13.6631 13.6211 -11.6045 23.0957c2.05371 9.47168 10.4463 16.2217 20.1377 16.2002zM179.2 204.066zM110.934 46.9336h136.533v-17.0674h-136.533v17.0674zM110.934 46.9336
zM358.4 383.267v-421.667h-358.4v486.4h293.667zM298.667 418.866v-30.5996h30.5996zM17.0664 -21.333h324.267v392.533h-59.7334v59.7334h-264.533v-452.267zM17.0664 -21.333zM341.333 430.934h51.2002v-494.934h-366.934v17.0664h349.867v460.8h-34.1338v17.0674z
M341.333 430.934z" />
    <glyph glyph-name="uniF113" unicode="&#xf113;" 
d="M358.4 383.267v-421.667h-358.4v486.4h293.667zM298.667 418.866v-30.5996h30.5996zM17.0664 -21.333h324.267v392.533h-59.7334v59.7334h-264.533v-452.267zM17.0664 -21.333zM341.333 430.934h51.2002v-494.934h-366.934v17.0664h349.867v460.8h-34.1338v17.0674z
M341.333 430.934zM51.2002 268.8v93.8672h256v-93.8672h-256zM68.2666 345.6v-59.7334h221.867v59.7334h-221.867zM68.2666 345.6zM51.2002 243.2h256v-17.0664h-256v17.0664zM51.2002 243.2zM187.733 55.4668v145.066h119.467v-145.066h-119.467zM204.8 183.467v-110.934
h85.334v110.934h-85.334zM204.8 183.467zM51.2002 200.533h110.934v-17.0664h-110.934v17.0664zM51.2002 200.533zM51.2002 157.866h110.934v-17.0664h-110.934v17.0664zM51.2002 157.866zM51.2002 115.2h110.934v-17.0664h-110.934v17.0664zM51.2002 115.2z
M51.2002 72.5332h110.934v-17.0664h-110.934v17.0664zM51.2002 72.5332z" />
    <glyph glyph-name="uniF116" unicode="&#xf116;" 
d="M358.4 383.267v-421.667h-358.4v486.4h293.667zM220.375 337.066h1.5166c0 14.1377 -11.4629 25.6006 -25.5996 25.6006h-34.1338c-14.1377 0 -25.5996 -11.4629 -25.5996 -25.6006v-31.5039c1.80762 0.529297 3.61621 1.0498 5.42871 1.75879h0.0839844
c20.7578 9.25781 38.5283 24.1123 51.3203 42.9033l3.3291 4.3877l5.36719 -1.22852c1.87891 -0.455078 3.69531 -1.12988 5.41602 -2.00879c0.391602 -0.204102 0.837891 -0.424805 1.24609 -0.654297c1.6543 -0.895508 3.19629 -1.97461 4.6084 -3.2168
c1.38281 -1.2832 2.61621 -2.7168 3.6875 -4.2666c0.262695 -0.375 0.516602 -0.762695 0.766602 -1.1543c1.0332 -1.57422 1.8916 -3.25781 2.5625 -5.0166zM153.6 285.866v-17.0664c0 -4.71191 3.82129 -8.5332 8.53418 -8.5332h34.1328
c4.71289 0 8.5332 3.82129 8.5332 8.5332v59.7334c-0.00390625 2.12891 -0.808594 4.1748 -2.24609 5.74219c-12.9619 -17.1338 -29.7207 -31.0342 -48.9541 -40.6084v-7.80078zM170.667 243.2v-8.5332h17.0664v8.5332h-17.0664zM214.042 217.6h-68.9756v-8.5332h68.6172z
M230.05 192h-102.05v25.5996h-17.0664c-4.71289 0 -8.5332 -3.82031 -8.5332 -8.5332v-25.5996h153.6v25.5996c0 4.71289 -3.82129 8.5332 -8.5332 8.5332h-16.3506zM247.467 234.667c14.1377 0 25.5996 -11.4629 25.5996 -25.6006v-25.5996h34.1338v187.733h-25.6006
v25.5996h-230.399v-213.333h34.1328v25.5996c0 14.1377 11.4629 25.6006 25.6006 25.6006h42.666v10.1035c-10.1914 3.60449 -17.0205 13.2207 -17.0664 24.0293v17.0664h-17.0664v51.2002c0.0292969 23.5547 19.1123 42.6377 42.667 42.667h34.1328
c23.5547 -0.0292969 42.6377 -19.1123 42.667 -42.667v-17.0664h-17.0674v-8.5332h8.53418v-25.6006h-8.53418v-17.0664c-0.0449219 -10.8086 -6.875 -20.4248 -17.0664 -24.0293v-10.1035h42.667zM298.667 388.267h30.5996l-30.5996 30.5996v-30.5996zM17.0664 -21.333
h324.267v392.533h-17.0664v-204.8h-290.133v247.466h247.466v17.0674h-264.533v-452.267zM17.0664 -21.333zM341.333 430.934h51.2002v-494.934h-366.934v17.0664h349.867v460.8h-34.1338v17.0674zM341.333 430.934zM34.1338 140.8h290.133v-17.0664h-290.133v17.0664z
M34.1338 140.8zM34.1338 98.1338h290.133v-17.0674h-290.133v17.0674zM34.1338 98.1338zM34.1338 55.4668h290.133v-17.0664h-290.133v17.0664zM34.1338 55.4668z" />
    <glyph glyph-name="uniF114" unicode="&#xf114;" 
d="M358.4 383.267v-421.667h-358.4v486.4h293.667zM298.667 418.866v-30.5996h30.5996zM17.0664 -21.333h324.267v392.533h-59.7334v59.7334h-264.533v-452.267zM17.0664 -21.333zM341.333 430.934h51.2002v-494.934h-366.934v17.0664h349.867v460.8h-34.1338v17.0674z
M341.333 430.934zM204.8 243.2h-170.666v170.666h170.666v-170.666zM68.2666 260.267h102.4v8.5332c-0.0292969 23.5547 -19.1133 42.6377 -42.667 42.667h-17.0664c-23.5547 -0.0292969 -42.6377 -19.1123 -42.667 -42.667v-8.5332zM102.4 337.066
c0 -4.71191 3.82031 -8.5332 8.5332 -8.5332h17.0664c4.71289 0 8.5332 3.82129 8.5332 8.5332v34.1338c0 4.71191 -3.82031 8.5332 -8.5332 8.5332h-17.0664c-4.71289 0 -8.5332 -3.82129 -8.5332 -8.5332v-34.1338zM187.733 396.8h-59.7334
c14.1377 0 25.5996 -11.4619 25.5996 -25.5996v-34.1338c-0.0244141 -4.50781 -1.25391 -8.9248 -3.55762 -12.7998c22.7246 -9.04199 37.6543 -31.0078 37.6914 -55.4668v128zM51.2002 396.8v-128c0.0371094 24.459 14.9668 46.4248 37.6914 55.4668
c-2.30371 3.875 -3.5332 8.29199 -3.55859 12.7998v34.1338c0 14.1377 11.4629 25.5996 25.6006 25.5996h-59.7334zM51.2002 396.8zM221.866 311.467v42.667h102.4v-42.667h-102.4zM238.934 337.066v-8.5332h68.2666v8.5332h-68.2666zM238.934 337.066zM221.866 251.733
v42.667h102.4v-42.667h-102.4zM238.934 277.333v-8.5332h68.2666v8.5332h-68.2666zM238.934 277.333zM34.1338 217.6h290.133v-17.0664h-290.133v17.0664zM34.1338 217.6zM34.1338 174.934h128v-17.0674h-128v17.0674zM34.1338 174.934zM34.1338 132.267h128v-17.0664h-128
v17.0664zM34.1338 132.267zM34.1338 89.5996h128v-17.0664h-128v17.0664zM34.1338 89.5996zM34.1338 46.9336h128v-17.0674h-128v17.0674zM34.1338 46.9336zM196.267 174.934h128v-17.0674h-128v17.0674zM196.267 174.934zM196.267 132.267h128v-17.0664h-128v17.0664z
M196.267 132.267zM196.267 89.5996h128v-17.0664h-128v17.0664zM196.267 89.5996zM196.267 46.9336h128v-17.0674h-128v17.0674zM196.267 46.9336z" />
    <glyph glyph-name="uniF110" unicode="&#xf110;" 
d="M358.4 383.267v-421.667h-358.4v486.4h293.667zM298.667 418.866v-30.5996h30.5996zM17.0664 -21.333h324.267v392.533h-59.7334v59.7334h-264.533v-452.267zM17.0664 -21.333zM341.333 430.934h51.2002v-494.934h-366.934v17.0664h349.867v460.8h-34.1338v17.0674z
M341.333 430.934zM277.642 258.371l36.1963 -36.1963l-30.1631 -30.1748l30.1631 -30.1748l-36.1963 -36.1963l-30.1748 30.1631l-30.1748 -30.1631l-36.1963 36.1963l30.1631 30.1748l-30.1631 30.1748l36.1963 36.1963l30.1748 -30.1631zM289.708 161.825l-30.166 30.1748
l30.166 30.1748l-12.0664 12.0664l-30.1748 -30.166l-30.1748 30.166l-12.0674 -12.0664l30.167 -30.1748l-30.167 -30.1748l12.0674 -12.0664l30.1748 30.166l30.1748 -30.166zM289.708 161.825zM42.667 234.667h51.1992v-17.0674h-51.1992v17.0674zM42.667 234.667z
M110.934 234.667h42.666v-17.0674h-42.666v17.0674zM110.934 234.667zM42.667 200.533h110.933v-17.0664h-110.933v17.0664zM42.667 200.533zM42.667 166.4h25.5996v-17.0674h-25.5996v17.0674zM42.667 166.4zM85.333 166.4h68.2666v-17.0674h-68.2666v17.0674z
M85.333 166.4zM196.267 64h93.8672v-17.0664h-93.8672v17.0664zM196.267 64zM68.2666 268.8h59.7334v-17.0664h-59.7334v17.0664zM68.2666 268.8zM230.4 311.467v-25.6006h-102.4v25.6006c0.0419922 16.542 9.6582 31.5664 24.6621 38.5371
c-4.87891 5.9873 -7.5625 13.4707 -7.5957 21.1963c0 18.8496 15.2832 34.1328 34.1338 34.1328c18.8496 0 34.1328 -15.2832 34.1328 -34.1328c-0.0332031 -7.72559 -2.7168 -15.209 -7.5957 -21.1963c15.0039 -6.9707 24.6211 -21.9951 24.6631 -38.5371zM179.2 388.267
c-9.4248 0 -17.0664 -7.6416 -17.0664 -17.0664s7.6416 -17.0664 17.0664 -17.0664s17.0664 7.6416 17.0664 17.0664s-7.6416 17.0664 -17.0664 17.0664zM213.333 302.934v8.5332c0 14.1377 -11.4619 25.5996 -25.5996 25.5996h-17.0664
c-14.1377 0 -25.6006 -11.4619 -25.6006 -25.5996v-8.5332h68.2666zM213.333 302.934z" />
    <glyph glyph-name="uniF112" unicode="&#xf112;" 
d="M358.4 383.267v-421.667h-358.4v486.4h293.667zM298.667 418.866v-30.5996h30.5996zM17.0664 -21.333h324.267v392.533h-59.7334v59.7334h-264.533v-452.267zM17.0664 -21.333zM341.333 430.934h51.2002v-494.934h-366.934v17.0664h349.867v460.8h-34.1338v17.0674z
M341.333 430.934zM59.7334 335.054v-40.6533h-17.0664v68.2666h22.3418l20.3242 -40.6543v40.6543h17.0674v-68.2666h-22.3418zM59.7334 335.054zM162.134 311.467v-17.0664h-51.2002v68.2666h51.2002v-17.0674h-34.1338v-8.5332h34.1338v-17.0664h-34.1338v-8.5332h34.1338
zM162.134 311.467zM203.496 294.4h-23.1631l-9.58301 67.0537l16.9004 2.4248l4.66602 -32.7168l5.25488 31.5049h22.9912l5.25391 -31.5049l4.66699 32.7168l16.9004 -2.4248l-9.58398 -67.0537h-23.1621l-5.57129 33.4248zM203.496 294.4zM256 320v42.667h51.2002
v-17.0674h-34.1338v-8.5332h34.1338v-42.666h-51.2002v17.0664h34.1338v8.5332h-34.1338zM256 320zM42.667 243.2h264.533v-17.0664h-264.533v17.0664zM42.667 243.2zM42.667 200.533h85.333v-17.0664h-85.333v17.0664zM42.667 200.533zM153.6 200.533h153.601v-17.0664
h-153.601v17.0664zM153.6 200.533zM42.667 157.866h42.666v-17.0664h-42.666v17.0664zM42.667 157.866zM110.934 157.866h136.533v-17.0664h-136.533v17.0664zM110.934 157.866zM273.066 157.866h34.1338v-17.0664h-34.1338v17.0664zM273.066 157.866zM42.667 4.2666
v110.934h153.6v-110.934h-153.6zM59.7334 98.1338v-76.8008h119.467v76.8008h-119.467zM59.7334 98.1338zM221.866 115.2h85.334v-17.0664h-85.334v17.0664zM221.866 115.2zM221.866 72.5332h34.1338v-17.0664h-34.1338v17.0664zM221.866 72.5332zM273.066 72.5332h34.1338
v-17.0664h-34.1338v17.0664zM273.066 72.5332zM221.866 29.8662h85.334v-17.0664h-85.334v17.0664zM221.866 29.8662z" />
    <glyph glyph-name="uniF108" unicode="&#xf108;" 
d="M358.4 383.267v-421.667h-358.4v486.4h293.667zM298.667 418.866v-30.5996h30.5996zM17.0664 -21.333h324.267v392.533h-59.7334v59.7334h-264.533v-452.267zM17.0664 -21.333zM341.333 430.934h51.2002v-494.934h-366.934v17.0664h349.867v460.8h-34.1338v17.0674z
M341.333 430.934zM85.333 46.9336h76.8008v-17.0674h-76.8008v17.0674zM85.333 46.9336zM187.733 285.866v-102.399h102.4v-8.5332c0.0703125 -45.5215 -27.7168 -86.4502 -70.0508 -103.184c-42.333 -16.7334 -90.5957 -5.86621 -121.666 27.4004l-30.1504 -30.1504
v-30.5996h-17.0664v37.666l36.4043 36.4043c-23.209 33.9502 -25.709 77.958 -6.5 114.325c19.208 36.3623 56.9707 59.0996 98.0957 59.0703h8.5332zM272.684 166.4h-102.017v102.017c-32.5625 -2.91699 -61.25 -22.6006 -75.6963 -51.9297
c-14.4414 -29.333 -12.5498 -64.0703 4.9873 -91.6621l30.542 30.541l12.0664 -12.0664l-32.0957 -32.0918c25.1455 -27.2246 63.9668 -37.0791 99.0498 -25.1416c35.084 11.9375 59.8418 43.4248 63.1631 80.334zM272.684 166.4zM256 298.846
c36.6748 -19.0791 59.6963 -56.9707 59.7334 -98.3125v-8.5332h-119.467v119.467h8.5332c11.5918 -0.00390625 23.1123 -1.83789 34.1338 -5.42969v34.7334l-38.5293 23.1172l8.79199 14.625l46.8037 -28.084v-51.583zM213.333 209.066h84.9502
c-2.66211 28.5586 -18.2373 54.334 -42.2832 69.9756v-27.3086h-17.0664v36.1914c-8.2002 3.22949 -16.8213 5.2832 -25.6006 6.0918v-84.9502zM213.333 209.066zM68.2666 396.8h68.2666v-17.0664h-68.2666v17.0664zM68.2666 396.8zM68.2666 362.667h51.2002v-17.0674
h-51.2002v17.0674zM68.2666 362.667zM136.533 362.667h34.1338v-17.0674h-34.1338v17.0674zM136.533 362.667zM51.2002 21.333h68.2666v-17.0664h-68.2666v17.0664zM51.2002 21.333zM136.533 21.333h25.6006v-17.0664h-25.6006v17.0664zM136.533 21.333z" />
    <glyph glyph-name="uniF102" unicode="&#xf102;" 
d="M358.4 383.267v-421.667h-358.4v486.4h293.667zM298.667 418.866v-30.5996h30.5996zM17.0664 -21.333h324.267v392.533h-59.7334v59.7334h-264.533v-452.267zM17.0664 -21.333zM341.333 430.934h51.2002v-494.934h-366.934v17.0664h349.867v460.8h-34.1338v17.0674z
M341.333 430.934zM307.2 268.8v-68.2666h17.0664v-17.0664h-145.066v-8.5332h-17.0664v8.5332h-8.53418v-17.0664h-17.0664v17.0664h-8.5332v-34.1338h-17.0664v34.1338h-8.5332v-51.2002h-17.0674v51.2002h-8.5332v-68.2666h-17.0664v68.2666h-8.5332v-93.8672h-17.0664
v204.801h17.0664v-93.8672h136.533v8.5332h17.0664v-8.5332h8.5332v17.0664h17.0674v-17.0664h8.5332v34.1338h17.0664v-34.1338h8.5332v51.2002h17.0664v-51.2002h8.53418v68.2666h17.0664zM307.2 268.8zM119.467 405.333h119.467v-17.0664h-119.467v17.0664z
M119.467 405.333zM59.7334 371.2h51.2002v-17.0664h-51.2002v17.0664zM59.7334 371.2zM128 371.2h136.533v-17.0664h-136.533v17.0664zM128 371.2zM59.7334 337.066h119.467v-17.0664h-119.467v17.0664zM59.7334 337.066zM204.8 72.5332h110.934v-17.0664h-110.934v17.0664z
M204.8 72.5332zM179.2 38.4004h59.7334v-17.0674h-59.7334v17.0674zM179.2 38.4004zM256 38.4004h59.7334v-17.0674h-59.7334v17.0674zM256 38.4004z" />
    <glyph glyph-name="uniF117" unicode="&#xf117;" 
d="M358.4 383.267v-421.667h-358.4v486.4h293.667zM298.667 418.866v-30.5996h30.5996zM17.0664 -21.333h324.267v392.533h-59.7334v59.7334h-264.533v-452.267zM17.0664 -21.333zM341.333 430.934h51.2002v-494.934h-366.934v17.0664h349.867v460.8h-34.1338v17.0674z
M341.333 430.934zM273.066 260.267v-42.667h42.667v-51.1992h-42.667v-42.667h-51.2002v42.667h-42.666v51.1992h42.666v42.667h51.2002zM298.667 200.533h-42.667v42.667h-17.0664v-42.667h-42.667v-17.0664h42.667v-42.667h17.0664v42.667h42.667v17.0664z
M298.667 200.533zM42.667 234.667h51.1992v-17.0674h-51.1992v17.0674zM42.667 234.667zM110.934 234.667h42.666v-17.0674h-42.666v17.0674zM110.934 234.667zM42.667 200.533h110.933v-17.0664h-110.933v17.0664zM42.667 200.533zM42.667 166.4h25.5996v-17.0674h-25.5996
v17.0674zM42.667 166.4zM85.333 166.4h68.2666v-17.0674h-68.2666v17.0674zM85.333 166.4zM196.267 64h93.8672v-17.0664h-93.8672v17.0664zM196.267 64zM68.2666 268.8h59.7334v-17.0664h-59.7334v17.0664zM68.2666 268.8zM230.4 311.467v-25.6006h-102.4v25.6006
c0.0419922 16.542 9.6582 31.5664 24.6621 38.5371c-4.87891 5.9873 -7.5625 13.4707 -7.5957 21.1963c0 18.8496 15.2832 34.1328 34.1338 34.1328c18.8496 0 34.1328 -15.2832 34.1328 -34.1328c-0.0332031 -7.72559 -2.7168 -15.209 -7.5957 -21.1963
c15.0039 -6.9707 24.6211 -21.9951 24.6631 -38.5371zM179.2 388.267c-9.4248 0 -17.0664 -7.6416 -17.0664 -17.0664s7.6416 -17.0664 17.0664 -17.0664s17.0664 7.6416 17.0664 17.0664s-7.6416 17.0664 -17.0664 17.0664zM213.333 302.934v8.5332
c0 14.1377 -11.4619 25.5996 -25.5996 25.5996h-17.0664c-14.1377 0 -25.6006 -11.4619 -25.6006 -25.5996v-8.5332h68.2666zM213.333 302.934z" />
    <glyph glyph-name="uniF109" unicode="&#xf109;" 
d="M358.4 383.267v-421.667h-358.4v486.4h293.667zM298.667 418.866v-30.5996h30.5996zM17.0664 -21.333h324.267v392.533h-59.7334v59.7334h-264.533v-452.267zM17.0664 -21.333zM341.333 430.934h51.2002v-494.934h-366.934v17.0664h349.867v460.8h-34.1338v17.0674z
M341.333 430.934zM153.292 180.241l-79.3174 -71.3828l-11.416 12.6836l91.3496 82.2168l34.1084 -34.1084l55.1338 50.125l-11.4375 12.5791l49.8867 10.8457l-15.5371 -48.6338l-11.4375 12.5791l-67.1748 -61.0625zM153.292 180.241zM68.2666 4.2666v85.333h221.867
v-85.333h-221.867zM85.333 72.5332v-51.2002h187.733v51.2002h-187.733zM85.333 72.5332zM162.134 337.066h51.1992v-17.0664h-51.1992v17.0664zM162.134 337.066zM162.134 294.4h110.933v-17.0674h-110.933v17.0674zM162.134 294.4zM102.4 285.866
c4.71191 0 8.5332 3.82129 8.5332 8.53418c0 4.71191 -3.82129 8.5332 -8.5332 8.5332c-12.4541 -0.0253906 -23.1084 8.9375 -25.2217 21.2119c-2.10742 12.2754 4.94238 24.2793 16.6875 28.417v10.1045h17.0674v-10.1045
c10.1914 -3.60449 17.0205 -13.2207 17.0664 -24.0293h-17.0664c0 4.71289 -3.82129 8.5332 -8.5332 8.5332c-4.71289 0 -8.53418 -3.82031 -8.53418 -8.5332c0 -4.71191 3.82129 -8.5332 8.53418 -8.5332c12.4541 0.0253906 23.1084 -8.9375 25.2207 -21.2129
c2.1084 -12.2744 -4.94238 -24.2783 -16.6875 -28.416v-10.1045h-17.0674v10.1045c-10.1914 3.60352 -17.0205 13.2207 -17.0664 24.0293h17.0664c0 -4.71289 3.82129 -8.53418 8.53418 -8.53418zM102.4 285.866z" />
    <glyph glyph-name="uniF106" unicode="&#xf106;" 
d="M358.4 383.267v-421.667h-358.4v486.4h293.667zM298.667 418.866v-30.5996h30.5996zM17.0664 -21.333h324.267v392.533h-59.7334v59.7334h-264.533v-452.267zM17.0664 -21.333zM341.333 430.934h51.2002v-494.934h-366.934v17.0664h349.867v460.8h-34.1338v17.0674z
M341.333 430.934zM298.667 183.467l15.1621 -37.9043l-11.9453 1.7041c-17.9756 -61.0254 -78.0547 -99.5752 -141.021 -90.4795c-62.9619 9.0918 -109.684 63.0625 -109.662 126.68h17.0664c0.0712891 -54.6211 39.8916 -101.062 93.8584 -109.467
c53.9707 -8.4082 106.029 23.7246 122.708 75.7334l-11.4414 1.6582zM298.667 183.467zM59.7334 217.6l-15.1621 37.9043l11.9453 -1.7041c17.9746 61.0254 78.0547 99.5752 141.021 90.4795c62.9629 -9.0918 109.684 -63.0625 109.663 -126.68h-17.0664
c-0.0712891 54.6211 -39.8926 101.062 -93.8584 109.467c-53.9717 8.4082 -106.029 -23.7246 -122.709 -75.7334l11.4424 -1.6582zM59.7334 217.6zM213.333 234.667c0 11.8955 -10.9121 21.8291 -25.5996 24.6953v-50.9375c24.1748 -3.4043 42.667 -20.9287 42.667 -42.0244
c0 -21.0967 -18.4922 -38.6133 -42.667 -42.0254v-17.708h-17.0664v17.708c-24.1758 3.4043 -42.667 20.9287 -42.667 42.0254h17.0664c0 -11.8877 10.9131 -21.8291 25.6006 -24.6875v50.9287c-24.1758 3.4043 -42.667 20.9297 -42.667 42.0254
s18.4912 38.6123 42.667 42.0244v17.709h17.0664v-17.709c24.1748 -3.4043 42.667 -20.9287 42.667 -42.0244h-17.0674zM145.066 234.667c0 -11.8965 10.9131 -21.8291 25.6006 -24.6875v49.3828c-14.6875 -2.86621 -25.6006 -12.7998 -25.6006 -24.6953zM213.333 166.4
c0 11.8955 -10.9121 21.8291 -25.5996 24.6953v-49.3828c14.6875 2.8584 25.5996 12.791 25.5996 24.6875zM213.333 166.4zM93.8662 209.066h17.0674v-17.0664h-17.0674v17.0664zM93.8662 209.066zM247.467 209.066h17.0664v-17.0664h-17.0664v17.0664zM247.467 209.066z
" />
    <glyph glyph-name="uniF100" unicode="&#xf100;" 
d="M51.2002 234.667h153.6v-17.0674h-153.6v17.0674zM51.2002 234.667zM238.934 234.667h68.2666v-17.0674h-68.2666v17.0674zM238.934 234.667zM51.2002 200.533h153.6v-17.0664h-153.6v17.0664zM51.2002 200.533zM238.934 200.533h68.2666v-17.0664h-68.2666v17.0664z
M238.934 200.533zM153.6 345.6h153.601v-17.0664h-153.601v17.0664zM153.6 345.6zM153.6 311.467h153.601v-17.0664h-153.601v17.0664zM153.6 311.467zM153.6 277.333h153.601v-17.0664h-153.601v17.0664zM153.6 277.333zM51.2002 115.2v51.2002h256v-51.2002h-256z
M68.2666 149.333v-17.0664h221.867v17.0664h-221.867zM68.2666 149.333zM196.267 98.1338h110.934v-17.0674h-110.934v17.0674zM196.267 98.1338zM358.4 383.267v-421.667h-358.4v486.4h293.667zM298.667 418.866v-30.5996h30.5996zM17.0664 -21.333h324.267v392.533
h-59.7334v59.7334h-264.533v-452.267zM17.0664 -21.333zM341.333 430.934h51.2002v-494.934h-366.934v17.0664h349.867v460.8h-34.1338v17.0674zM341.333 430.934zM93.8662 277.333c4.71289 0 8.53418 3.82129 8.53418 8.5332c0 4.71289 -3.82129 8.53418 -8.53418 8.53418
c-12.4541 -0.0253906 -23.1074 8.9375 -25.2207 21.2119c-2.1084 12.2754 4.94238 24.2793 16.6875 28.417v10.1045h17.0674v-10.1045c10.1914 -3.60449 17.0205 -13.2207 17.0664 -24.0293h-17.0664c0 4.71289 -3.82129 8.5332 -8.53418 8.5332
c-4.71191 0 -8.5332 -3.82031 -8.5332 -8.5332s3.82129 -8.5332 8.5332 -8.5332c12.4551 0.0244141 23.1084 -8.9375 25.2217 -21.2129c2.1084 -12.2744 -4.94238 -24.2793 -16.6875 -28.416v-10.1045h-17.0674v10.1045c-10.1914 3.60352 -17.0205 13.2207 -17.0664 24.0283
h17.0664c0 -4.71191 3.82129 -8.5332 8.5332 -8.5332zM93.8662 277.333z" />
    <glyph glyph-name="uniF104" unicode="&#xf104;" 
d="M358.4 383.267v-421.667h-358.4v486.4h293.667zM298.667 418.866v-30.5996h30.5996zM17.0664 -21.333h324.267v392.533h-59.7334v59.7334h-264.533v-452.267zM17.0664 -21.333zM341.333 430.934h51.2002v-494.934h-366.934v17.0664h349.867v460.8h-34.1338v17.0674z
M341.333 430.934zM179.2 337.066c80.0791 -0.0869141 144.979 -64.9873 145.066 -145.066v-8.5332h-60.167c-4.43262 -43.5752 -41.0996 -76.7461 -84.8994 -76.7998c-19.7002 -0.0839844 -38.8086 6.72852 -54.0166 19.25l-24.4297 -24.4297l-6.0332 6.0332
c-44.3789 44.2627 -46.8789 115.342 -5.7168 162.608l-18.4746 18.4756l6.0498 6.0332c27.1875 27.25 64.1289 42.5244 102.621 42.4287zM76.7998 192c-0.0664062 -24.2207 8.52539 -47.667 24.2256 -66.1084l66.1084 66.1084l-66.0625 66.0664
c-15.7051 -18.4287 -24.3125 -41.8584 -24.2715 -66.0664zM179.2 123.733c34.3711 0.0585938 63.3496 25.6328 67.6787 59.7334h-64.1455l-45.3457 -45.3379c11.9209 -9.3623 26.6543 -14.4326 41.8125 -14.3955zM290.134 200.533h16.7832
c-3.24609 48.5918 -33.7666 91.1338 -78.7549 109.779c-44.9873 18.6416 -96.6582 10.1621 -133.324 -21.8877l87.8955 -87.8916h107.4zM290.134 200.533zM136.533 362.667v-17.0674h-17.0664v34.1338h128v-17.0664h-110.934zM136.533 362.667zM119.467 72.5332v-17.0664
h-85.333v76.7998h25.5996v-17.0664h-8.5332v-42.667h68.2666zM119.467 72.5332zM256 123.733v17.0664h34.1338v-68.2666h-17.0674v51.2002h-17.0664zM256 123.733zM119.467 29.8662h119.467v-17.0664h-119.467v17.0664zM119.467 29.8662z" />
    <glyph glyph-name="uniF10A" unicode="&#xf10a;" 
d="M358.4 383.267v-421.667h-358.4v486.4h293.667zM298.667 418.866v-30.5996h30.5996zM17.0664 -21.333h324.267v392.533h-59.7334v59.7334h-264.533v-452.267zM17.0664 -21.333zM341.333 430.934h51.2002v-494.934h-366.934v17.0664h349.867v460.8h-34.1338v17.0674z
M341.333 430.934zM68.2666 4.2666v85.333h221.867v-85.333h-221.867zM85.333 72.5332v-51.2002h187.733v51.2002h-187.733zM85.333 72.5332zM264.533 251.733v-136.533h25.6006v-17.0664h-221.867v17.0664h25.5996v59.7334h51.2002v42.666h51.2002v34.1338h68.2666z
M110.934 115.2h34.1328v42.666h-34.1328v-42.666zM162.134 115.2h34.1328v85.333h-34.1328v-85.333zM213.333 115.2h34.1338v119.467h-34.1338v-119.467zM213.333 115.2zM153.6 345.6h59.7334v-17.0664h-59.7334v17.0664zM153.6 345.6zM153.6 302.934h110.934v-17.0674
h-110.934v17.0674zM153.6 302.934zM110.934 294.4c4.71191 0 8.5332 3.82031 8.5332 8.5332c0 4.71191 -3.82129 8.5332 -8.5332 8.5332c-12.4541 -0.0253906 -23.1084 8.9375 -25.2207 21.2119c-2.1084 12.2754 4.94141 24.2793 16.6875 28.417v10.1045h17.0664v-10.1045
c10.1914 -3.60449 17.0205 -13.2207 17.0664 -24.0293h-17.0664c0 4.71289 -3.82129 8.5332 -8.5332 8.5332c-4.71289 0 -8.5332 -3.82031 -8.5332 -8.5332c0 -4.71191 3.82031 -8.5332 8.5332 -8.5332c12.4541 0.0253906 23.1084 -8.9375 25.2207 -21.2119
c2.1084 -12.2754 -4.94141 -24.2793 -16.6875 -28.417v-10.1045h-17.0664v10.1045c-10.1924 3.60449 -17.0215 13.2207 -17.0674 24.0293h17.0674c0 -4.71289 3.82031 -8.5332 8.5332 -8.5332zM110.934 294.4z" />
    <glyph glyph-name="uniF10D" unicode="&#xf10d;" 
d="M85.333 251.733v10.1045c-10.1914 3.60352 -17.0205 13.2207 -17.0664 24.0283h17.0664c0 -4.71191 3.82129 -8.5332 8.5332 -8.5332c4.71289 0 8.53418 3.82129 8.53418 8.5332c0 4.71289 -3.82129 8.53418 -8.53418 8.53418
c-12.4541 -0.0253906 -23.1074 8.9375 -25.2207 21.2119c-2.1084 12.2754 4.94238 24.2793 16.6875 28.417v10.1045h17.0674v-10.1045c10.1914 -3.60449 17.0205 -13.2207 17.0664 -24.0293h-17.0664c0 4.71289 -3.82129 8.5332 -8.53418 8.5332
c-4.71191 0 -8.5332 -3.82031 -8.5332 -8.5332s3.82129 -8.5332 8.5332 -8.5332c12.4551 0.0244141 23.1084 -8.9375 25.2217 -21.2129c2.1084 -12.2744 -4.94238 -24.2793 -16.6875 -28.416v-10.1045h-17.0674zM85.333 251.733zM76.7998 226.134h128v-17.0674h-128v17.0674
zM76.7998 226.134zM238.934 226.134h42.666v-17.0674h-42.666v17.0674zM238.934 226.134zM76.7998 183.467h128v-17.0664h-128v17.0664zM76.7998 183.467zM238.934 183.467h42.666v-17.0664h-42.666v17.0664zM238.934 183.467zM179.2 21.333h102.399v-17.0664h-102.399
v17.0664zM179.2 21.333zM283.717 146.425l12.833 -11.2412l-23.1328 -26.4502c14.4414 -22.3916 9.32422 -52.1123 -11.7754 -68.3838c-21.0957 -16.2744 -51.1416 -13.6709 -69.1328 5.9834c-17.9883 19.6543 -17.9209 49.8125 0.15332 69.3877
c18.0752 19.5791 48.1299 22.0459 69.1592 5.68359zM264.533 81.0664c-0.0205078 4.82129 -1.07031 9.58789 -3.0791 13.9707l-30.6377 -34.9873l-23.5166 23.5166l12.0664 12.0674l10.6172 -10.6172l20.5371 23.4746c-5.8125 4.33789 -12.8662 6.6875 -20.1201 6.70898
c-18.8506 0 -34.1338 -15.2832 -34.1338 -34.1338c0 -18.8496 15.2832 -34.1328 34.1338 -34.1328c18.8496 0 34.1328 15.2832 34.1328 34.1328zM264.533 81.0664zM358.4 383.267v-421.667h-358.4v486.4h293.667zM298.667 418.866v-30.5996h30.5996zM17.0664 -21.333
h324.267v392.533h-59.7334v59.7334h-264.533v-452.267zM17.0664 -21.333zM341.333 430.934h51.2002v-494.934h-366.934v17.0664h349.867v460.8h-34.1338v17.0674zM341.333 430.934zM179.2 277.333c4.71191 0 8.5332 3.82129 8.5332 8.5332
c0 4.71289 -3.82129 8.53418 -8.5332 8.53418c-12.4541 -0.0253906 -23.1084 8.9375 -25.2207 21.2119c-2.1084 12.2754 4.94141 24.2793 16.6875 28.417v10.1045h17.0664v-10.1045c10.1914 -3.60449 17.0205 -13.2207 17.0664 -24.0293h-17.0664
c0 4.71289 -3.82129 8.5332 -8.5332 8.5332c-4.71289 0 -8.5332 -3.82031 -8.5332 -8.5332s3.82031 -8.5332 8.5332 -8.5332c12.4541 0.0244141 23.1084 -8.9375 25.2207 -21.2129c2.1084 -12.2744 -4.94141 -24.2793 -16.6875 -28.416v-10.1045h-17.0664v10.1045
c-10.1924 3.60352 -17.0215 13.2207 -17.0674 24.0283h17.0674c0 -4.71191 3.82031 -8.5332 8.5332 -8.5332zM179.2 277.333zM264.533 277.333c4.71289 0 8.5332 3.82129 8.5332 8.5332c0 4.71289 -3.82031 8.53418 -8.5332 8.53418
c-12.4541 -0.0253906 -23.1084 8.9375 -25.2207 21.2119c-2.1084 12.2754 4.94141 24.2793 16.6875 28.417v10.1045h17.0664v-10.1045c10.1924 -3.60449 17.0215 -13.2207 17.0674 -24.0293h-17.0674c0 4.71289 -3.82031 8.5332 -8.5332 8.5332
c-4.71191 0 -8.5332 -3.82031 -8.5332 -8.5332s3.82129 -8.5332 8.5332 -8.5332c12.4541 0.0244141 23.1084 -8.9375 25.2207 -21.2129c2.1084 -12.2744 -4.94141 -24.2793 -16.6875 -28.416v-10.1045h-17.0664v10.1045c-10.1914 3.60352 -17.0205 13.2207 -17.0664 24.0283
h17.0664c0 -4.71191 3.82129 -8.5332 8.5332 -8.5332zM264.533 277.333z" />
    <glyph glyph-name="uniF10C" unicode="&#xf10c;" 
d="M358.4 383.267v-421.667h-358.4v486.4h293.667zM298.667 418.866v-30.5996h30.5996zM17.0664 -21.333h324.267v392.533h-59.7334v59.7334h-264.533v-452.267zM17.0664 -21.333zM341.333 430.934h51.2002v-494.934h-366.934v17.0664h349.867v460.8h-34.1338v17.0674z
M341.333 430.934zM42.667 234.667h51.1992v-17.0674h-51.1992v17.0674zM42.667 234.667zM110.934 234.667h42.666v-17.0674h-42.666v17.0674zM110.934 234.667zM42.667 200.533h110.933v-17.0664h-110.933v17.0664zM42.667 200.533zM42.667 166.4h25.5996v-17.0674h-25.5996
v17.0674zM42.667 166.4zM85.333 166.4h68.2666v-17.0674h-68.2666v17.0674zM85.333 166.4zM196.267 64h93.8672v-17.0664h-93.8672v17.0664zM196.267 64zM42.667 268.8h59.7334v-17.0664h-59.7334v17.0664zM42.667 268.8zM309.392 265.975l12.6836 -11.458
l-19.8164 -22.0166c21.6455 -29.3496 16.7285 -70.4707 -11.2168 -93.8955c-27.9502 -23.4258 -69.2959 -21.0713 -94.4131 5.37012c-25.1123 26.4424 -25.333 67.8545 -0.5 94.5586c24.8291 26.708 66.1504 29.5 94.3457 6.375zM298.667 192
c0.00390625 9.7666 -2.80469 19.3252 -8.0918 27.5371l-51.2998 -57.0039l-31.959 31.9668l12.0674 12.0664l19.2412 -19.2334l40.417 44.9004c-18.8291 14.7959 -45.3799 14.6211 -64.0049 -0.424805c-18.6289 -15.042 -24.3916 -40.959 -13.8955 -62.4756
c10.4961 -21.5205 34.4707 -32.9326 57.792 -27.5117c23.3203 5.41992 39.8037 26.2373 39.7334 50.1787zM298.667 192zM59.7334 123.733v-110.934h110.934v-17.0664h-128v128h17.0664zM59.7334 123.733zM136.533 115.2v17.0664h42.667v-42.667h-17.0664v13.5342
l-79.3008 -79.3008l-12.0664 12.0674l79.2998 79.2998h-13.5332zM136.533 115.2zM196.267 29.8662h34.1338v-17.0664h-34.1338v17.0664zM196.267 29.8662zM247.467 29.8662h42.667v-17.0664h-42.667v17.0664zM247.467 29.8662zM170.667 371.2h51.1992v-17.0664h-51.1992
v17.0664zM170.667 371.2zM170.667 328.533h110.933v-17.0664h-110.933v17.0664zM170.667 328.533zM110.934 311.467c4.71191 0 8.5332 3.82031 8.5332 8.5332s-3.82129 8.5332 -8.5332 8.5332c-12.4541 -0.0244141 -23.1084 8.9375 -25.2207 21.2129
c-2.1084 12.2744 4.94141 24.2793 16.6875 28.416v10.1045h17.0664v-10.1045c10.1914 -3.60352 17.0205 -13.2207 17.0664 -24.0283h-17.0664c0 4.71191 -3.82129 8.5332 -8.5332 8.5332c-4.71289 0 -8.5332 -3.82129 -8.5332 -8.5332
c0 -4.71289 3.82031 -8.53418 8.5332 -8.53418c12.4541 0.0253906 23.1084 -8.9375 25.2207 -21.2119c2.1084 -12.2754 -4.94141 -24.2793 -16.6875 -28.417v-10.1045h-17.0664v10.1045c-10.1924 3.60449 -17.0215 13.2207 -17.0674 24.0293h17.0674
c0 -4.71289 3.82031 -8.5332 8.5332 -8.5332zM110.934 311.467z" />
    <glyph glyph-name="uniF107" unicode="&#xf107;" 
d="M358.4 383.267v-421.667h-358.4v486.4h293.667zM298.667 418.866v-30.5996h30.5996zM17.0664 -21.333h324.267v392.533h-59.7334v59.7334h-264.533v-452.267zM17.0664 -21.333zM341.333 430.934h51.2002v-494.934h-366.934v17.0664h349.867v460.8h-34.1338v17.0674z
M341.333 430.934zM153.6 337.066h153.601v-17.0664h-153.601v17.0664zM153.6 337.066zM153.6 302.934h153.601v-17.0674h-153.601v17.0674zM153.6 302.934zM153.6 268.8h153.601v-17.0664h-153.601v17.0664zM153.6 268.8zM273.066 140.8
c-0.0625 -51.8164 -42.0498 -93.8037 -93.8662 -93.8662c-51.8418 0 -93.8672 42.0244 -93.8672 93.8662s42.0254 93.8672 93.8672 93.8672s93.8662 -42.0254 93.8662 -93.8672zM246.612 104.046c4.77148 8.7373 7.79199 18.3252 8.88379 28.2207h-49.2129zM255.496 149.333
c-4.0332 35.6211 -32.1416 63.7295 -67.7627 67.7627v-67.7627h67.7627zM179.2 64c22.0498 0.0126953 43.0244 9.5293 57.5498 26.1211l-66.083 46.2334v80.7412c-40.3965 -4.64551 -70.167 -39.9707 -67.9043 -80.5703c2.2627 -40.5967 35.7744 -72.3965 76.4375 -72.5254z
M179.2 64zM85.333 243.2v10.1035c-10.1914 3.60449 -17.0205 13.2217 -17.0664 24.0293h17.0664c0 -4.71191 3.82129 -8.5332 8.5332 -8.5332c4.71289 0 8.53418 3.82129 8.53418 8.5332c0 4.71289 -3.82129 8.5332 -8.53418 8.5332
c-12.4541 -0.0244141 -23.1074 8.9375 -25.2207 21.2129c-2.1084 12.2754 4.94238 24.2793 16.6875 28.417v10.1035h17.0674v-10.1035c10.1914 -3.60449 17.0205 -13.2207 17.0664 -24.0293h-17.0664c0 4.71191 -3.82129 8.5332 -8.53418 8.5332
c-4.71191 0 -8.5332 -3.82129 -8.5332 -8.5332c0 -4.71289 3.82129 -8.5332 8.5332 -8.5332c12.4551 0.0244141 23.1084 -8.9375 25.2217 -21.2129c2.1084 -12.2744 -4.94238 -24.2793 -16.6875 -28.417v-10.1035h-17.0674zM85.333 243.2zM264.533 217.6h42.667v-17.0664
h-42.667v17.0664zM264.533 217.6zM281.6 123.733h25.6006v-17.0664h-25.6006v17.0664zM281.6 123.733zM42.667 81.0664h42.666v-17.0664h-42.666v17.0664zM42.667 81.0664zM221.866 29.8662h76.8008v-17.0664h-76.8008v17.0664zM221.866 29.8662z" />
    <glyph glyph-name="uniF10E" unicode="&#xf10e;" 
d="M261.121 58.5459c3.5791 -6.3623 6.4043 -13.125 8.4043 -20.1455h37.6748v-25.6006h-17.0664v8.5332h-34.2959l-1.3916 6.8252c-1.94238 9.62891 -5.74219 18.7832 -11.1875 26.958l-3.84668 5.82129l24.2666 24.2666l-12.0742 12.0752l-24.2754 -24.2754
l-5.82031 3.85449c-8.17578 5.44141 -17.3252 9.24121 -26.9502 11.1953l-6.8252 1.39258v34.2871h-17.0664v-34.2871l-6.8252 -1.39258c-9.625 -1.94922 -18.7793 -5.75 -26.958 -11.1875l-5.82129 -3.85352l-24.2666 24.2666l-12.0752 -12.0752l24.2754 -24.2754
l-3.8457 -5.82031c-5.44629 -8.1709 -9.25 -17.3252 -11.1963 -26.9502l-1.3916 -6.8252h-34.2959v-8.5332h-17.0664v25.6006h37.6748c2 7.02051 4.8252 13.7832 8.4043 20.1455l-26.6914 26.6582l36.208 36.208l26.667 -26.6582
c6.3584 3.57129 13.1201 6.37988 20.1367 8.37109v37.6748h51.2002v-37.6748c7.02148 -2 13.7793 -4.82129 20.1377 -8.4043l26.6338 26.6914l36.208 -36.208zM261.121 58.5459zM179.2 64c28.2666 -0.0292969 51.1709 -22.9336 51.2002 -51.2002h-17.0674
c0 18.8506 -15.2832 34.1338 -34.1328 34.1338c-18.8506 0 -34.1338 -15.2832 -34.1338 -34.1338h-17.0664c0.0292969 28.2666 22.9336 51.1709 51.2002 51.2002zM179.2 64zM153.6 157.866v51.2002h51.2002v-51.2002h-51.2002zM170.667 192v-17.0664h17.0664v17.0664
h-17.0664zM170.667 192zM204.312 226.134h-50.2246l-9.54199 162.133h69.3086zM195.779 371.2h-33.125l7.52441 -128h18.0752zM195.779 371.2zM358.4 383.267v-421.667h-358.4v486.4h293.667zM298.667 418.866v-30.5996h30.5996zM17.0664 -21.333h324.267v392.533h-59.7334
v59.7334h-264.533v-452.267zM17.0664 -21.333zM341.333 430.934h51.2002v-494.934h-366.934v17.0664h349.867v460.8h-34.1338v17.0674zM341.333 430.934z" />
    <glyph glyph-name="uniF10F" unicode="&#xf10f;" 
d="M358.4 383.267v-421.667h-358.4v486.4h293.667zM298.667 418.866v-30.5996h30.5996zM17.0664 -21.333h324.267v392.533h-59.7334v59.7334h-264.533v-452.267zM17.0664 -21.333zM341.333 430.934h51.2002v-494.934h-366.934v17.0664h349.867v460.8h-34.1338v17.0674z
M341.333 430.934zM119.467 277.333v-17.0664h-76.7998v76.7998h17.0664v-59.7334h59.7334zM119.467 277.333zM84.917 306.884l53.7334 61.4082l12.833 -11.25l-65.7334 -75.125l-23.5166 23.5166l12.0664 12.0664zM84.917 306.884zM119.467 149.333v-17.0664h-76.7998
v76.7998h17.0664v-59.7334h59.7334zM119.467 149.333zM84.917 178.884l53.7334 61.4082l12.833 -11.25l-65.7334 -75.125l-23.5166 23.5166l12.0664 12.0664zM84.917 178.884zM59.7334 81.0664v-59.7334h59.7334v-17.0664h-76.7998v76.7998h17.0664zM59.7334 81.0664z
M84.917 50.8838l53.7334 61.4082l12.833 -11.25l-65.7334 -75.125l-23.5166 23.5166l12.0664 12.0664zM84.917 50.8838zM179.2 328.533h102.399v-17.0664h-102.399v17.0664zM179.2 328.533zM179.2 294.4h68.2666v-17.0674h-68.2666v17.0674zM179.2 294.4zM264.533 294.4
h51.2002v-17.0674h-51.2002v17.0674zM264.533 294.4zM221.866 200.533h93.8672v-17.0664h-93.8672v17.0664zM221.866 200.533zM179.2 166.4h76.7998v-17.0674h-76.7998v17.0674zM179.2 166.4zM273.066 166.4h42.667v-17.0674h-42.667v17.0674zM273.066 166.4zM179.2 72.5332
h136.533v-17.0664h-136.533v17.0664zM179.2 72.5332zM179.2 38.4004h34.1328v-17.0674h-34.1328v17.0674zM179.2 38.4004zM230.4 38.4004h85.333v-17.0674h-85.333v17.0674zM230.4 38.4004zM179.2 200.533h25.5996v-17.0664h-25.5996v17.0664zM179.2 200.533z
M298.667 328.533h17.0664v-17.0664h-17.0664v17.0664zM298.667 328.533z" />
    <glyph glyph-name="uniF101" unicode="&#xf101;" 
d="M358.4 383.267v-421.667h-358.4v486.4h293.667zM298.667 418.866v-30.5996h30.5996zM17.0664 -21.333h324.267v392.533h-59.7334v59.7334h-264.533v-452.267zM17.0664 -21.333zM341.333 430.934h51.2002v-494.934h-366.934v17.0664h349.867v460.8h-34.1338v17.0674z
M341.333 430.934zM102.4 311.467c4.71191 0 8.5332 3.82031 8.5332 8.5332s-3.82129 8.5332 -8.5332 8.5332c-12.4541 -0.0244141 -23.1084 8.9375 -25.2217 21.2129c-2.10742 12.2744 4.94238 24.2793 16.6875 28.416v10.1045h17.0674v-10.1045
c10.1914 -3.60352 17.0205 -13.2207 17.0664 -24.0283h-17.0664c0 4.71191 -3.82129 8.5332 -8.5332 8.5332c-4.71289 0 -8.53418 -3.82129 -8.53418 -8.5332c0 -4.71289 3.82129 -8.53418 8.53418 -8.53418c12.4541 0.0253906 23.1084 -8.9375 25.2207 -21.2119
c2.1084 -12.2754 -4.94238 -24.2793 -16.6875 -28.417v-10.1045h-17.0674v10.1045c-10.1914 3.60449 -17.0205 13.2207 -17.0664 24.0293h17.0664c0 -4.71289 3.82129 -8.5332 8.53418 -8.5332zM102.4 311.467zM170.667 371.2h51.1992v-17.0664h-51.1992v17.0664z
M170.667 371.2zM170.667 328.533h110.933v-17.0664h-110.933v17.0664zM170.667 328.533zM290.134 277.333c14.1367 0 25.5996 -11.4619 25.5996 -25.5996s-11.4629 -25.5996 -25.5996 -25.5996c-2.45508 0.0371094 -4.8877 0.432617 -7.22949 1.17871l-39.9502 -54.9668
c6.24219 -9.06641 5.9873 -21.1162 -0.637695 -29.9121c-6.62012 -8.7998 -18.1289 -12.375 -28.5752 -8.87988c-10.4414 3.49219 -17.4785 13.2754 -17.4746 24.2881c0 0.349609 0.104492 0.666992 0.104492 1.00781l-40.7129 16.2793
c-6.74121 -7.93262 -17.708 -10.8203 -27.4795 -7.2373l-38.2207 -47.7832c2.54199 -4.02539 3.89648 -8.68359 3.9082 -13.4414c0 -14.1377 -11.4619 -25.6006 -25.5996 -25.6006s-25.5996 11.4629 -25.5996 25.6006c0 14.1367 11.4619 25.5996 25.5996 25.5996
c2.84961 -0.0205078 5.6748 -0.525391 8.35449 -1.49121l38.2207 47.7832c-2.54199 4.02441 -3.89551 8.68262 -3.9082 13.4414c0 14.1377 11.4619 25.5996 25.5996 25.5996s25.6006 -11.4619 25.6006 -25.5996c0 -0.349609 -0.104492 -0.666992 -0.104492 -1.00879
l40.7119 -16.2783c4.81738 5.53711 11.7881 8.72852 19.125 8.75391c2.45508 -0.0458984 4.89258 -0.450195 7.22949 -1.2041l39.9502 54.9619c-5.38379 7.83398 -5.9873 18.0088 -1.5625 26.4209c4.4209 8.41699 13.1416 13.6836 22.6504 13.6875zM68.2666 98.1338
c4.71289 0 8.5332 3.82031 8.5332 8.5332c0 4.71191 -3.82031 8.5332 -8.5332 8.5332s-8.5332 -3.82129 -8.5332 -8.5332c0 -4.71289 3.82031 -8.5332 8.5332 -8.5332zM136.533 183.467c4.71289 0 8.5332 3.82031 8.5332 8.5332s-3.82031 8.5332 -8.5332 8.5332
c-4.71191 0 -8.5332 -3.82031 -8.5332 -8.5332s3.82129 -8.5332 8.5332 -8.5332zM221.866 149.333c4.71289 0 8.53418 3.82129 8.53418 8.5332c0 4.71289 -3.82129 8.53418 -8.53418 8.53418c-4.71191 0 -8.5332 -3.82129 -8.5332 -8.53418
c0 -4.71191 3.82129 -8.5332 8.5332 -8.5332zM290.134 243.2c4.71191 0 8.5332 3.82031 8.5332 8.5332s-3.82129 8.5332 -8.5332 8.5332c-4.71289 0 -8.53418 -3.82031 -8.53418 -8.5332s3.82129 -8.5332 8.53418 -8.5332zM290.134 243.2zM68.2666 55.4668h76.7998v-17.0664
h-76.7998v17.0664zM68.2666 55.4668zM179.2 55.4668h128v-17.0664h-128v17.0664zM179.2 55.4668zM42.667 21.333h264.533v-17.0664h-264.533v17.0664zM42.667 21.333z" />
    <glyph glyph-name="uniF103" unicode="&#xf103;" 
d="M358.4 383.267v-421.667h-358.4v486.4h293.667zM298.667 418.866v-30.5996h30.5996zM17.0664 -21.333h324.267v392.533h-59.7334v59.7334h-264.533v-452.267zM17.0664 -21.333zM341.333 430.934h51.2002v-494.934h-366.934v17.0664h349.867v460.8h-34.1338v17.0674z
M341.333 430.934zM307.2 192c-0.0292969 -46.7627 -25.542 -89.7959 -66.5586 -112.254l6.8252 -13.7334v-19.0791h-17.0664v15.0537l-5.33398 10.6582c-45.625 -17.7617 -97.3955 -7.69141 -133.033 25.8799l-32.2998 -37.6836v-13.9082h-17.0664v20.2246l37.5459 43.7754
c-41.8174 50.916 -38.0459 125.291 8.71191 171.717l-20.6582 25.8203v28.5957h17.0664v-22.6035l16.5547 -20.6963c46.4375 35.5791 111.154 34.9004 156.833 -1.64551l14.3457 14.3457v13.5332h17.0674v-20.6084l-18.7754 -18.7754
c22.9912 -23.7705 35.8418 -55.5449 35.8418 -88.6162zM253.5 262.767l-12.0752 12.0332l5.12109 5.12109c-2.52539 1.94141 -5.12109 3.7959 -7.80859 5.50391l-6.0332 -11.291c9.18359 -6.00879 17.2959 -13.5088 24.0127 -22.1875l10.7627 6.9541
c-2.5459 3.37012 -5.2832 6.5957 -8.19629 9.65332zM179.2 110.934c44.75 0.0498047 81.0166 36.3164 81.0664 81.0664c0 44.7705 -36.2959 81.0664 -81.0664 81.0664c-44.7715 0 -81.0664 -36.2959 -81.0664 -81.0664s36.2949 -81.0664 81.0664 -81.0664zM99.6963 269.191
c-18.0586 -18.5498 -29.0254 -42.8457 -30.9961 -68.6582h12.7998c2.70801 31.3252 20.2705 59.4502 47.2295 75.6289c26.958 16.1797 60.041 18.4502 88.9541 6.10449l6.02441 11.2793c-36.6748 16.2129 -79.2617 11.1953 -111.171 -13.0879l5.05859 -6.32422
l-13.3252 -10.667zM95.9248 129.246l12.9502 -11.0586l-5.75 -6.7168c18.4043 -17.4453 42.2539 -28.0293 67.542 -29.9707v12.7998c-47.4004 4.19141 -84.9756 41.7666 -89.167 89.167h-12.7998c1.6416 -21.5791 9.5957 -42.1963 22.8789 -59.2793zM187.733 81.5
c10.1543 0.775391 20.1504 2.95801 29.7041 6.4873l-3.16699 6.33398l15.2754 7.625l3.41211 -6.90918c53.1875 29.4004 72.7588 96.1592 43.8711 149.621l-10.8203 -6.99609c15.3457 -29.0537 15.1035 -63.8623 -0.637695 -92.6992
c-15.7461 -28.8379 -44.9004 -47.8633 -77.6377 -50.6631v-12.7998zM187.733 81.5zM68.2666 46.9336h17.0664v-17.0674h-17.0664v17.0674zM68.2666 46.9336zM102.4 46.9336h59.7334v-17.0674h-59.7334v17.0674zM102.4 46.9336zM256 46.9336h59.7334v-17.0674h-59.7334
v17.0674zM256 46.9336zM42.667 371.2h85.333v-17.0664h-85.333v17.0664zM42.667 371.2zM238.934 345.6h42.666v-17.0664h-42.666v17.0664zM238.934 345.6zM128 413.866h93.8662v-17.0664h-93.8662v17.0664zM128 413.866z" />
    <glyph glyph-name="uniF115" unicode="&#xf115;" 
d="M341.333 430.934h51.2002v-494.934h-366.934v17.0664h349.867v460.8h-34.1338v17.0674zM341.333 430.934zM34.1338 140.8h290.133v-17.0664h-290.133v17.0664zM34.1338 140.8zM34.1338 98.1338h290.133v-17.0674h-290.133v17.0674zM34.1338 98.1338zM34.1338 55.4668
h290.133v-17.0664h-290.133v17.0664zM34.1338 55.4668zM358.4 383.267v-421.667h-358.4v486.4h293.667zM298.667 418.866v-30.5996h30.5996zM307.2 371.2h-25.6006v25.5996h-230.399v-213.333h34.1328v25.5996c0 14.1377 11.4629 25.6006 25.6006 25.6006h42.666v10.1035
c-10.1914 3.60449 -17.0205 13.2207 -17.0664 24.0293v17.0664h-25.5996v59.7334c0.0292969 23.5547 19.1123 42.6377 42.666 42.667h51.2002c23.5293 -0.0791016 42.5879 -19.1377 42.667 -42.667v-34.1328c0 -14.1377 -11.4629 -25.6006 -25.6006 -25.6006v-17.0664
c-0.0449219 -10.8086 -6.875 -20.4248 -17.0664 -24.0293v-10.1035h42.667c14.1377 0 25.5996 -11.4629 25.5996 -25.6006v-25.5996h34.1338v187.733zM256 209.066c0 4.71289 -3.82129 8.5332 -8.5332 8.5332h-17.0664v-34.1328h25.5996v25.5996zM202.088 353.408
c11.5498 -2.7207 19.7334 -13.0078 19.7783 -24.875v-25.5996c4.71289 0 8.53418 3.82031 8.53418 8.5332v34.1328c0.0458984 9.67969 -5.43359 18.542 -14.1133 22.8252c-3.55371 1.8291 -7.49121 2.7793 -11.4873 2.77539h-51.2002
c-14.1367 0 -25.5996 -11.4629 -25.5996 -25.6006v-41.9414c0.349609 0.0498047 0.700195 0.0957031 1.0498 0.154297c1.5166 0.246094 3.03809 0.571289 4.55859 0.9375c0.662109 0.162109 1.32031 0.299805 1.97949 0.479492
c2.14551 0.586914 4.26172 1.2793 6.33691 2.08301h0.0791016c17.7881 7.6582 33.3291 19.7373 45.1416 35.0879c2.0918 2.50391 4.17578 5.12012 6.24609 7.84961l3.3291 4.3877zM153.6 293.675v-24.875c0 -4.71191 3.82129 -8.5332 8.53418 -8.5332h34.1328
c4.71289 0 8.5332 3.82129 8.5332 8.5332v59.7334c-0.00390625 2.12891 -0.803711 4.18359 -2.24609 5.75c-2.05762 -2.54199 -4.13281 -4.9873 -6.22852 -7.33691c-0.654297 -0.733398 -1.3125 -1.40918 -1.9707 -2.125
c-1.44238 -1.57129 -2.88379 -3.12988 -4.3418 -4.61719c-0.804688 -0.816406 -1.6123 -1.5791 -2.4248 -2.37109c-1.32129 -1.28711 -2.6377 -2.5625 -3.9668 -3.77051c-0.879883 -0.795898 -1.79199 -1.55371 -2.64648 -2.32129
c-1.25391 -1.10352 -2.54102 -2.17871 -3.8125 -3.21191c-0.932617 -0.75 -1.8623 -1.4668 -2.7998 -2.18359c-1.24609 -0.945312 -2.49121 -1.9043 -3.75391 -2.75391c-0.950195 -0.674805 -1.9043 -1.33301 -2.8584 -1.96289
c-1.2207 -0.836914 -2.52051 -1.62012 -3.7832 -2.3916c-0.954102 -0.579102 -1.91699 -1.1582 -2.88379 -1.7041c-1.2959 -0.737305 -2.60352 -1.39941 -3.9082 -2.06641c-0.920898 -0.470703 -1.8418 -0.954102 -2.77051 -1.3916
c-0.266602 -0.117188 -0.529297 -0.279297 -0.804688 -0.400391zM204.8 217.6h-1.2793l9.8125 -7.84961v7.84961h-8.5332zM187.733 243.2h-17.0664v-8.5332h17.0664v8.5332zM154.879 217.6h-9.8125v-7.84961zM179.2 215.213l-39.6797 -31.7461h79.3584zM128 217.6h-17.0664
c-4.71289 0 -8.5332 -3.82031 -8.5332 -8.5332v-25.5996h25.5996v34.1328zM341.333 -21.333v392.533h-17.0664v-204.8h-290.133v247.466h247.466v17.0674h-264.533v-452.267h324.267zM341.333 -21.333z" />
    <glyph glyph-name="uniF10B" unicode="&#xf10b;" 
d="M358.4 383.267v-421.667h-358.4v486.4h293.667zM298.667 418.866v-30.5996h30.5996zM17.0664 -21.333h324.267v392.533h-59.7334v59.7334h-264.533v-452.267zM17.0664 -21.333zM341.333 430.934h51.2002v-494.934h-366.934v17.0664h349.867v460.8h-34.1338v17.0674z
M341.333 430.934zM68.2666 4.2666v85.333h221.867v-85.333h-221.867zM85.333 72.5332v-51.2002h187.733v51.2002h-187.733zM85.333 72.5332zM179.2 337.066h51.2002v-17.0664h-51.2002v17.0664zM179.2 337.066zM179.2 294.4h110.934v-17.0674h-110.934v17.0674zM179.2 294.4
zM128 106.667h-17.0664v58.4951h-11.8877l20.4209 35.3711l20.4209 -35.3711h-11.8877v-58.4951zM128 106.667zM170.667 106.667v101.162h-11.8877l20.4209 35.3711l20.4209 -35.3711h-11.8877v-101.162h-17.0664zM170.667 106.667zM247.467 106.667h-17.0664v58.4951
h-11.8877l20.4209 35.3711l20.4209 -35.3711h-11.8877v-58.4951zM247.467 106.667zM119.467 277.333c4.71191 0 8.5332 3.82129 8.5332 8.5332c0 4.71289 -3.82129 8.53418 -8.5332 8.53418c-12.4541 -0.0253906 -23.1084 8.9375 -25.2207 21.2119
c-2.1084 12.2754 4.94141 24.2793 16.6875 28.417v10.1045h17.0664v-10.1045c10.1914 -3.60449 17.0205 -13.2207 17.0664 -24.0293h-17.0664c0 4.71289 -3.82129 8.5332 -8.5332 8.5332c-4.71289 0 -8.5332 -3.82031 -8.5332 -8.5332s3.82031 -8.5332 8.5332 -8.5332
c12.4541 0.0244141 23.1084 -8.9375 25.2207 -21.2129c2.1084 -12.2744 -4.94141 -24.2793 -16.6875 -28.416v-10.1045h-17.0664v10.1045c-10.1924 3.60352 -17.0215 13.2207 -17.0674 24.0283h17.0674c0 -4.71191 3.82031 -8.5332 8.5332 -8.5332zM119.467 277.333z" />
    <glyph glyph-name="uniF111" unicode="&#xf111;" 
d="M358.4 383.267v-421.667h-358.4v486.4h293.667zM298.667 418.866v-30.5996h30.5996zM17.0664 -21.333h324.267v392.533h-59.7334v59.7334h-264.533v-452.267zM17.0664 -21.333zM341.333 430.934h51.2002v-494.934h-366.934v17.0664h349.867v460.8h-34.1338v17.0674z
M341.333 430.934zM42.667 234.667h51.1992v-17.0674h-51.1992v17.0674zM42.667 234.667zM110.934 234.667h42.666v-17.0674h-42.666v17.0674zM110.934 234.667zM42.667 200.533h110.933v-17.0664h-110.933v17.0664zM42.667 200.533zM42.667 166.4h25.5996v-17.0674h-25.5996
v17.0674zM42.667 166.4zM85.333 166.4h68.2666v-17.0674h-68.2666v17.0674zM85.333 166.4zM196.267 64h93.8672v-17.0664h-93.8672v17.0664zM196.267 64zM68.2666 268.8h59.7334v-17.0664h-59.7334v17.0664zM68.2666 268.8zM230.4 311.467v-25.6006h-102.4v25.6006
c0.0419922 16.542 9.6582 31.5664 24.6621 38.5371c-4.87891 5.9873 -7.5625 13.4707 -7.5957 21.1963c0 18.8496 15.2832 34.1328 34.1338 34.1328c18.8496 0 34.1328 -15.2832 34.1328 -34.1328c-0.0332031 -7.72559 -2.7168 -15.209 -7.5957 -21.1963
c15.0039 -6.9707 24.6211 -21.9951 24.6631 -38.5371zM179.2 388.267c-9.4248 0 -17.0664 -7.6416 -17.0664 -17.0664s7.6416 -17.0664 17.0664 -17.0664s17.0664 7.6416 17.0664 17.0664s-7.6416 17.0664 -17.0664 17.0664zM213.333 302.934v8.5332
c0 14.1377 -11.4619 25.5996 -25.5996 25.5996h-17.0664c-14.1377 0 -25.6006 -11.4619 -25.6006 -25.5996v-8.5332h68.2666zM213.333 302.934zM309.392 265.975l12.6836 -11.458l-19.8164 -22.0166c21.6455 -29.3496 16.7285 -70.4707 -11.2168 -93.8955
c-27.9502 -23.4258 -69.2959 -21.0713 -94.4131 5.37012c-25.1123 26.4424 -25.333 67.8545 -0.5 94.5586c24.8291 26.708 66.1504 29.5 94.3457 6.375zM298.667 192c0.00390625 9.7666 -2.80469 19.3252 -8.0918 27.5371l-51.2998 -57.0039l-31.959 31.9668
l12.0674 12.0664l19.2412 -19.2334l40.417 44.9004c-18.8291 14.7959 -45.3799 14.6211 -64.0049 -0.424805c-18.6289 -15.042 -24.3916 -40.959 -13.8955 -62.4756c10.4961 -21.5205 34.4707 -32.9326 57.792 -27.5117c23.3203 5.41992 39.8037 26.2373 39.7334 50.1787z
M298.667 192z" />
    <glyph glyph-name="uniF105" unicode="&#xf105;" 
d="M358.4 383.267v-421.667h-358.4v486.4h293.667zM298.667 418.866v-30.5996h30.5996zM17.0664 -21.333h324.267v392.533h-59.7334v59.7334h-264.533v-452.267zM17.0664 -21.333zM341.333 430.934h51.2002v-494.934h-366.934v17.0664h349.867v460.8h-34.1338v17.0674z
M341.333 430.934zM136.1 262.767l-42.2334 -42.2412l-42.2324 42.2412l12.0664 12.0664l21.6328 -21.6328v7.06641c0.0292969 23.5547 19.1133 42.6377 42.667 42.667h102.4c23.5537 -0.0292969 42.6367 -19.1123 42.666 -42.667v-25.5996h-17.0664v25.5996
c0 14.1377 -11.4629 25.5996 -25.5996 25.5996h-102.4c-14.1377 0 -25.5996 -11.4619 -25.5996 -25.5996v-7.06641l21.6328 21.6328zM136.1 262.767zM222.3 121.233l42.2334 42.2412l42.2334 -42.2412l-12.0664 -12.0664l-21.6338 21.6328v-7.06641
c-0.0292969 -23.5547 -19.1123 -42.6377 -42.666 -42.667h-102.4c-23.5537 0.0292969 -42.6377 19.1123 -42.667 42.667v23.4668h17.0674v-23.4668c0 -14.1377 11.4619 -25.5996 25.5996 -25.5996h102.4c14.1367 0 25.5996 11.4619 25.5996 25.5996v7.06641
l-21.6338 -21.6328zM222.3 121.233zM110.934 200.533h17.0664v-17.0664h-17.0664v17.0664zM110.934 200.533zM230.4 200.533h17.0664v-17.0664h-17.0664v17.0664zM230.4 200.533zM170.667 217.6c-4.71289 0 -8.5332 -3.82031 -8.5332 -8.5332
c0 -4.71191 3.82031 -8.5332 8.5332 -8.5332h17.0664c14.1377 0 25.5996 -11.4619 25.5996 -25.5996s-11.4619 -25.6006 -25.5996 -25.6006v-8.5332h-17.0664v8.5332c-14.1377 0 -25.6006 11.4629 -25.6006 25.6006h17.0674c0 -4.71289 3.82031 -8.5332 8.5332 -8.5332
h17.0664c4.71289 0 8.5332 3.82031 8.5332 8.5332c0 4.71191 -3.82031 8.5332 -8.5332 8.5332h-17.0664c-14.1377 0 -25.6006 11.4619 -25.6006 25.5996s11.4629 25.6006 25.6006 25.6006v8.5332h17.0664v-8.5332c14.1377 0 25.5996 -11.4629 25.5996 -25.6006h-17.0664
c0 4.71289 -3.82031 8.5332 -8.5332 8.5332h-17.0664zM170.667 217.6z" />
  </font>
</defs>
</svg>
